<svg width="32" height="33" viewBox="0 0 32 33" fill="none" xmlns="http://www.w3.org/2000/svg">
<path fill-rule="evenodd" clip-rule="evenodd" d="M25.3848 4.50027H6.61517C5.67181 4.48862 4.76199 4.85075 4.0846 5.50782C3.40465 6.16737 3.01446 7.07005 3.00014 8.01722L3 21.6936L3.00029 21.7127C3.0146 22.6598 3.40465 23.5625 4.0846 24.2221C4.76198 24.8791 5.67178 25.2412 6.61511 25.2296H13.0981L13.1045 25.2296C13.2725 25.2287 13.4385 25.2646 13.591 25.3347L23.044 30.3531C23.4361 30.5613 23.909 30.5474 24.2882 30.3164C24.6675 30.0854 24.8969 29.6717 24.8918 29.2277L24.8207 22.9517H25.9386C27.6006 22.9713 28.9683 21.6461 28.9996 19.9829L28.9999 19.9592L29 8.03624L28.9997 8.01723C28.9854 7.07005 28.5954 6.16737 27.9154 5.50782C27.238 4.85075 26.3282 4.48862 25.3848 4.50027ZM5.83645 7.31386C5.6374 7.50694 5.52244 7.77054 5.51624 8.04758V21.6823C5.52244 21.9593 5.6374 22.2229 5.83645 22.416C6.03734 22.6109 6.30742 22.7179 6.58725 22.7136L6.60656 22.7134L13.0951 22.7135L22.1536 22.7136V20.8547C22.1536 19.7504 24.3965 19.9781 24.8207 19.9592L26.4838 19.9829V8.04757C26.4776 7.77053 26.3626 7.50694 26.1635 7.31386C25.9627 7.119 25.6926 7.01193 25.4127 7.01623L25.3934 7.01652L5.83645 7.31386Z" fill="currentColor"/>
<path fill-rule="evenodd" clip-rule="evenodd" d="M8.03235 12.468C8.03235 11.7732 8.5956 11.21 9.2904 11.21H22.7096C23.4044 11.21 23.9677 11.7732 23.9677 12.468C23.9677 13.1628 23.4044 13.7261 22.7096 13.7261H9.2904C8.5956 13.7261 8.03235 13.1628 8.03235 12.468ZM8.03235 17.5002C8.03235 16.8054 8.5956 16.2422 9.2904 16.2422H19.3548C20.0496 16.2422 20.6129 16.8054 20.6129 17.5002C20.6129 18.195 20.0496 18.7583 19.3548 18.7583H9.2904C8.5956 18.7583 8.03235 18.195 8.03235 17.5002Z" fill="currentColor"/>
</svg>
