<svg width="32" height="33" viewBox="0 0 32 33" fill="none" xmlns="http://www.w3.org/2000/svg">
<path fill-rule="evenodd" clip-rule="evenodd" d="M11.7583 7.84839L11.761 7.84839L19.4437 7.84839C20.1454 7.84997 20.8435 7.94933 21.5177 8.1436C24.7503 8.98104 27.081 11.7982 27.2983 15.1304L27.9959 22.6138C27.9986 22.6436 28.0003 22.6735 28.0008 22.7035C28.0735 26.7143 24.8824 30.0255 20.8716 30.101L20.849 30.1014L10.3304 30.1012C6.31961 30.0257 3.12858 26.7143 3.20123 22.7035C3.20177 22.6735 3.20344 22.6435 3.20623 22.6136L3.90543 15.1268C4.12392 11.7965 6.45351 8.98136 9.68412 8.14366C10.3584 7.94935 11.0565 7.84997 11.7583 7.84839ZM11.7624 10.2484C11.2798 10.2496 10.7997 10.3186 10.3362 10.4534C10.324 10.457 10.3117 10.4603 10.2994 10.4635C8.05999 11.0383 6.44526 12.9895 6.29944 15.2969C6.29869 15.3089 6.29775 15.3208 6.29663 15.3328L5.60025 22.7895C5.57484 25.4531 7.69792 27.6453 10.365 27.7012H20.8371C23.5042 27.6453 25.6273 25.453 25.6018 22.7894L24.907 15.3358C24.9059 15.3237 24.9049 15.3116 24.9042 15.2996C24.7593 12.9908 23.1437 11.0382 20.9029 10.4636C20.8905 10.4604 20.8782 10.457 20.8659 10.4534C20.4024 10.3186 19.9223 10.2496 19.4396 10.2484H11.7624Z" fill="currentColor"/>
<path fill-rule="evenodd" clip-rule="evenodd" d="M15.6012 2.1008C19.2865 2.04359 22.3275 4.9764 22.4009 8.66429L22.4012 8.68817V11.9218C22.4012 12.5845 21.8639 13.1218 21.2012 13.1218C20.5384 13.1218 20.0012 12.5845 20.0012 11.9218V8.70083C19.948 6.33489 17.9913 4.45619 15.6238 4.50076C15.6087 4.50104 15.5936 4.50104 15.5786 4.50076C13.2111 4.45619 11.2543 6.3349 11.2012 8.70084V11.9202C11.2012 12.5829 10.6639 13.1202 10.0012 13.1202C9.33844 13.1202 8.80118 12.5829 8.80118 11.9202V8.68817L8.80142 8.66429C8.87484 4.9764 11.9158 2.04359 15.6012 2.1008Z" fill="currentColor"/>
</svg>
