<svg width="32" height="33" viewBox="0 0 32 33" fill="none" xmlns="http://www.w3.org/2000/svg">
<path fill-rule="evenodd" clip-rule="evenodd" d="M5.42338 5.23349C5.54735 4.69945 6.02319 4.32141 6.57143 4.32141H25.4286C25.9768 4.32141 26.4527 4.69945 26.5766 5.23349L28.1422 11.9781C28.1553 12.0293 28.1649 12.0819 28.171 12.1356C28.1772 12.1893 28.1797 12.2427 28.1786 12.2955V27.5C28.1786 28.1509 27.6509 28.6786 27 28.6786H5C4.34909 28.6786 3.82143 28.1509 3.82143 27.5V12.2955C3.82031 12.2427 3.82276 12.1892 3.82898 12.1356C3.83506 12.0819 3.84475 12.0293 3.85779 11.978L5.42338 5.23349ZM6.17857 13.4483V26.3214H25.8214V13.4483H17.1786V16.5C17.1786 17.1509 16.6509 17.6786 16 17.6786C15.3491 17.6786 14.8214 17.1509 14.8214 16.5V13.4483H6.17857ZM17.1786 11.0911H25.5165L24.4922 6.67855H17.1786V11.0911ZM14.8214 11.0911V6.67855H7.50776L6.48349 11.0911H14.8214Z" fill="currentColor"/>
</svg>
