<svg width="32" height="32" viewBox="0 0 32 32" fill="none" xmlns="http://www.w3.org/2000/svg">
<path fill-rule="evenodd" clip-rule="evenodd" d="M2 15.5C2 7.76801 8.26801 1.5 16 1.5C16.7483 1.5 17.3548 2.10658 17.3548 2.85484V14.1452H28.6452C29.3934 14.1452 30 14.7517 30 15.5C30 23.232 23.732 29.5 16 29.5C8.26801 29.5 2 23.232 2 15.5ZM14.6452 4.29013C9.04847 4.95945 4.70968 9.72304 4.70968 15.5C4.70968 21.7355 9.76453 26.7903 16 26.7903C21.777 26.7903 26.5405 22.4515 27.2099 16.8548H16C15.2517 16.8548 14.6452 16.2483 14.6452 15.5V4.29013Z" fill="currentColor"/>
<path fill-rule="evenodd" clip-rule="evenodd" d="M19.433 2.47078C19.7925 2.2169 20.2529 2.15349 20.6677 2.30073C24.6512 3.71486 27.7852 6.84891 29.1994 10.8324C29.3466 11.2472 29.2832 11.7076 29.0293 12.0671C28.7754 12.4267 28.3627 12.6405 27.9226 12.6405H20.2145C19.4662 12.6405 18.8596 12.0339 18.8596 11.2856V3.5775C18.8596 3.13737 19.0734 2.72466 19.433 2.47078ZM21.5693 5.68122V9.93079H25.8189C24.8112 8.15795 23.3421 6.68894 21.5693 5.68122Z" fill="currentColor"/>
</svg>
