<svg width="32" height="33" viewBox="0 0 32 33" fill="none" xmlns="http://www.w3.org/2000/svg">
<path fill-rule="evenodd" clip-rule="evenodd" d="M15.7424 8.50035C14.6167 8.50058 13.7041 9.41303 13.7038 10.5388C13.7034 11.6647 14.6157 12.5777 15.7416 12.5784C16.8673 12.579 17.7806 11.6673 17.7818 10.5416M15.7428 8.50035C16.2838 8.5007 16.8025 8.71588 17.1848 9.09858C17.5672 9.48129 17.7819 10.0002 17.7818 10.5412M11.7034 10.5382C11.7041 8.30777 13.5124 6.5 15.7428 6.5H15.7432C16.8149 6.50047 17.8425 6.92664 18.5999 7.68475C19.3574 8.44286 19.7826 9.47081 19.7822 10.5425L19.7822 10.5429C19.7802 12.7733 17.9709 14.58 15.7404 14.5787C13.51 14.5774 11.7028 12.7686 11.7034 10.5382Z" fill="currentColor"/>
<path fill-rule="evenodd" clip-rule="evenodd" d="M18.8781 17.0607C18.8889 17.0607 18.8998 17.0608 18.9106 17.0612C21.6403 17.1469 23.8087 19.3845 23.8087 22.1155C23.8087 24.8466 21.6403 27.0842 18.9106 27.1699C18.9002 27.1703 18.8897 27.1704 18.8792 27.1704H12.6115C12.601 27.1704 12.5905 27.1703 12.5801 27.1699C9.8504 27.0842 7.68198 24.8466 7.68198 22.1155C7.68198 19.3845 9.8504 17.1469 12.5801 17.0612C12.5905 17.0608 12.601 17.0607 12.6115 17.0607H18.8781ZM12.6283 19.061C10.9853 19.1203 9.68232 20.4697 9.68232 22.1155C9.68232 23.7614 10.9852 25.1107 12.6283 25.1701H18.8624C20.5054 25.1107 21.8084 23.7614 21.8084 22.1155C21.8084 20.4697 20.5054 19.1203 18.8624 19.061H12.6283Z" fill="currentColor"/>
<path fill-rule="evenodd" clip-rule="evenodd" d="M24.1441 11.541C23.4128 11.541 22.82 12.1337 22.8198 12.865C22.8197 13.5962 23.4123 14.1892 24.1436 14.1895C24.8748 14.1897 25.4679 13.5972 25.4683 12.866C25.4685 12.5146 25.3291 12.1776 25.0807 11.9291L25.7881 11.2221L25.0807 11.9291C24.8323 11.6806 24.4954 11.541 24.1441 11.541ZM20.8195 12.8646C20.8198 11.0287 22.3082 9.54065 24.1441 9.54065C25.0261 9.54065 25.872 9.89118 26.4956 10.5151C27.1191 11.139 27.4691 11.9851 27.4686 12.8671C27.4676 14.703 25.9787 16.1905 24.1428 16.1898C22.3069 16.1891 20.8191 14.7005 20.8195 12.8646Z" fill="currentColor"/>
<path fill-rule="evenodd" clip-rule="evenodd" d="M3.65924 12.8668C3.65924 11.0307 5.1477 9.54224 6.98382 9.54224C8.81993 9.54224 10.3084 11.0307 10.3084 12.8668C10.3084 14.7029 8.81993 16.1914 6.98382 16.1914C5.1477 16.1914 3.65924 14.7029 3.65924 12.8668ZM6.98382 11.5426C6.25246 11.5426 5.65959 12.1355 5.65959 12.8668C5.65959 13.5982 6.25246 14.191 6.98382 14.191C7.71517 14.191 8.30804 13.5982 8.30804 12.8668C8.30804 12.1355 7.71517 11.5426 6.98382 11.5426Z" fill="currentColor"/>
<path fill-rule="evenodd" clip-rule="evenodd" d="M23.8001 18.9537C23.8001 18.4013 24.2479 17.9535 24.8003 17.9535H26.5536L26.564 17.9537C28.7959 18 30.581 19.8225 30.581 22.0549C30.581 24.2872 28.7959 26.1097 26.564 26.156L26.5536 26.1562H24.8003C24.2479 26.1562 23.8001 25.7085 23.8001 25.1561C23.8001 24.6037 24.2479 24.1559 24.8003 24.1559H26.5319C27.671 24.1273 28.5806 23.1955 28.5806 22.0549C28.5806 20.9142 27.671 19.9824 26.5319 19.9538H24.8003C24.2479 19.9538 23.8001 19.506 23.8001 18.9537Z" fill="currentColor"/>
<path fill-rule="evenodd" clip-rule="evenodd" d="M4.57436 17.9535H6.3277C6.88008 17.9535 7.32787 18.4013 7.32787 18.9537C7.32787 19.506 6.88008 19.9538 6.3277 19.9538H4.59609C3.45696 19.9824 2.54734 20.9142 2.54734 22.0549C2.54734 23.1955 3.45696 24.1273 4.59609 24.1559H6.3277C6.88008 24.1559 7.32787 24.6037 7.32787 25.1561C7.32787 25.7085 6.88008 26.1562 6.3277 26.1562H4.57436L4.56399 26.156C2.33212 26.1097 0.546997 24.2872 0.546997 22.0549C0.546997 19.8225 2.33212 18 4.56399 17.9537L4.57436 17.9535Z" fill="currentColor"/>
</svg>
