<svg width="17" height="17" viewBox="0 0 17 17" fill="none" xmlns="http://www.w3.org/2000/svg">
<path d="M15.2505 5.52661C15.2652 5.94056 15.6127 6.26418 16.0267 6.24944C16.4406 6.2347 16.7643 5.88718 16.7495 5.47323L15.2505 5.52661ZM11.714 1.49992V2.24992C11.7224 2.24992 11.7307 2.24978 11.7391 2.2495L11.714 1.49992ZM5.286 1.49992L5.26095 2.2495C5.2693 2.24978 5.27765 2.24992 5.286 2.24992V1.49992ZM0.250475 5.47323C0.235735 5.88718 0.559359 6.2347 0.97331 6.24944C1.38726 6.26418 1.73478 5.94056 1.74952 5.52661L0.250475 5.47323ZM16.75 5.5C16.75 5.08579 16.4142 4.75 16 4.75C15.5858 4.75 15.25 5.08579 15.25 5.5H16.75ZM16 11.5L16.7495 11.5267C16.7498 11.5178 16.75 11.5089 16.75 11.5H16ZM11.714 15.5L11.7391 14.7504C11.7307 14.7501 11.7224 14.75 11.714 14.75V15.5ZM5.286 15.5V14.75C5.27765 14.75 5.2693 14.7501 5.26095 14.7504L5.286 15.5ZM1 11.5H0.25C0.25 11.5089 0.250158 11.5178 0.250475 11.5267L1 11.5ZM1.75 5.5C1.75 5.08579 1.41421 4.75 1 4.75C0.585786 4.75 0.25 5.08579 0.25 5.5H1.75ZM16.3783 6.1476C16.736 5.93867 16.8565 5.47936 16.6476 5.1217C16.4387 4.76404 15.9794 4.64347 15.6217 4.8524L16.3783 6.1476ZM10.736 8.575L10.3577 7.92737L10.3515 7.93109L10.736 8.575ZM6.264 8.575L6.64856 7.93106L6.6423 7.9274L6.264 8.575ZM1.3783 4.8524C1.02064 4.64347 0.561328 4.76404 0.352398 5.1217C0.143468 5.47936 0.264038 5.93867 0.621699 6.1476L1.3783 4.8524ZM16.7495 5.47323C16.6534 2.77292 14.3895 0.660078 11.6889 0.750338L11.7391 2.2495C13.6129 2.18687 15.1838 3.65293 15.2505 5.52661L16.7495 5.47323ZM11.714 0.749919H5.286V2.24992H11.714V0.749919ZM5.31105 0.750338C2.61054 0.660078 0.34663 2.77292 0.250475 5.47323L1.74952 5.52661C1.81625 3.65293 3.38712 2.18687 5.26095 2.2495L5.31105 0.750338ZM15.25 5.5V11.5H16.75V5.5H15.25ZM15.2505 11.4733C15.1838 13.347 13.6129 14.813 11.7391 14.7504L11.6889 16.2496C14.3895 16.3398 16.6534 14.227 16.7495 11.5267L15.2505 11.4733ZM11.714 14.75H5.286V16.25H11.714V14.75ZM5.26095 14.7504C3.38712 14.813 1.81624 13.347 1.74952 11.4733L0.250475 11.5267C0.34663 14.227 2.61054 16.3398 5.31105 16.2496L5.26095 14.7504ZM1.75 11.5V5.5H0.25V11.5H1.75ZM15.6217 4.8524L10.3577 7.9274L11.1143 9.2226L16.3783 6.1476L15.6217 4.8524ZM10.3515 7.93109C9.21109 8.61211 7.78891 8.61211 6.64854 7.93109L5.87946 9.21891C7.49352 10.1828 9.50647 10.1828 11.1205 9.21891L10.3515 7.93109ZM6.6423 7.9274L1.3783 4.8524L0.621699 6.1476L5.8857 9.2226L6.6423 7.9274Z" fill="currentColor"/>
</svg>
