<svg width="30" height="25" viewBox="0 0 30 25" fill="none" xmlns="http://www.w3.org/2000/svg">
<path fill-rule="evenodd" clip-rule="evenodd" d="M17.5139 6.61832C17.9706 6.12895 18.713 6.12698 19.172 6.61392L23.8853 11.6139C23.8889 11.6177 23.8925 11.6216 23.896 11.6254C24.003 11.7419 24.0842 11.8747 24.1399 12.0166C24.1984 12.1653 24.2308 12.3286 24.2308 12.5C24.2308 12.6714 24.1984 12.8347 24.1399 12.9834C24.0842 13.1252 24.0029 13.2583 23.896 13.3746C23.8925 13.3784 23.8889 13.3823 23.8853 13.3861L19.172 18.3861C18.713 18.873 17.9706 18.871 17.5139 18.3817C17.0572 17.8923 17.059 17.1009 17.5181 16.6139L20.2177 13.75H1.17246C0.524927 13.75 0 13.1904 0 12.5C0 11.8096 0.524927 11.25 1.17246 11.25H20.2177L17.5181 8.38608C17.059 7.89915 17.0572 7.10769 17.5139 6.61832Z" fill="currentColor"/>
<path fill-rule="evenodd" clip-rule="evenodd" d="M9.23077 7.66129C9.23077 3.43008 12.5025 0 16.5385 0H22.6923C26.7282 0 30 3.43008 30 7.66129V17.3387C30 21.5699 26.7282 25 22.6923 25H16.5385C12.5025 25 9.23077 21.5699 9.23077 17.3387C9.23077 16.6706 9.74737 16.129 10.3846 16.129C11.0219 16.129 11.5385 16.6706 11.5385 17.3387C11.5385 20.2337 13.777 22.5806 16.5385 22.5806H22.6923C25.4537 22.5806 27.6923 20.2337 27.6923 17.3387V7.66129C27.6923 4.76625 25.4537 2.41935 22.6923 2.41935H16.5385C13.777 2.41935 11.5385 4.76625 11.5385 7.66129C11.5385 8.32938 11.0219 8.87097 10.3846 8.87097C9.74737 8.87097 9.23077 8.32938 9.23077 7.66129Z" fill="currentColor"/>
</svg>
