<svg width="16" height="17" viewBox="0 0 16 17" fill="none" xmlns="http://www.w3.org/2000/svg">
<path fill-rule="evenodd" clip-rule="evenodd" d="M1.86343 2.85805C2.74343 1.93105 3.05443 1.67105 3.42943 1.55005C3.68895 1.48204 3.96112 1.47827 4.22243 1.53905C4.56643 1.63905 4.65743 1.71505 5.78543 2.83905C6.77643 3.82605 6.87543 3.93305 6.97043 4.12605C7.15208 4.46482 7.18046 4.86503 7.04843 5.22605C6.94843 5.50105 6.80643 5.68305 6.20543 6.28605L5.81343 6.67905C5.71048 6.78366 5.68629 6.94253 5.75343 7.07305C6.62437 8.5589 7.86 9.79798 9.34343 10.673C9.51418 10.7645 9.72445 10.7349 9.86343 10.6L10.2404 10.229C10.4734 9.9902 10.7202 9.76515 10.9794 9.55505C11.3866 9.30506 11.8939 9.28275 12.3214 9.49605C12.5304 9.59605 12.5994 9.65805 13.6214 10.678C14.6754 11.729 14.7054 11.762 14.8214 12.003C15.0397 12.402 15.0374 12.8852 14.8154 13.282C14.7024 13.506 14.6334 13.587 14.0404 14.193C13.6824 14.559 13.3454 14.893 13.2914 14.942C12.8022 15.3471 12.1746 15.5458 11.5414 15.496C10.383 15.3905 9.26169 15.0324 8.25643 14.447C6.02956 13.2672 4.13383 11.5482 2.74243 9.44705C2.43937 9.00731 2.16994 8.54534 1.93643 8.06505C1.31001 6.99141 0.986529 5.76798 1.00043 4.52505C1.04825 3.87481 1.36008 3.27246 1.86343 2.85805Z" stroke="currentColor" stroke-width="1.5" stroke-linecap="round" stroke-linejoin="round"/>
</svg>
