<svg width="22" height="22" viewBox="0 0 22 22" fill="none" xmlns="http://www.w3.org/2000/svg">
<path fill-rule="evenodd" clip-rule="evenodd" d="M11.0003 0C10.3494 0 9.82176 0.527664 9.82176 1.17857V9.82151H1.17857C0.527664 9.82151 0 10.3492 0 11.0001C0 11.651 0.527664 12.1787 1.17857 12.1787H9.82176V20.8214C9.82176 21.4723 10.3494 22 11.0003 22C11.6512 22 12.1789 21.4723 12.1789 20.8214V12.1787H20.8214C21.4723 12.1787 22 11.651 22 11.0001C22 10.3492 21.4723 9.82151 20.8214 9.82151H12.1789V1.17857C12.1789 0.527664 11.6512 0 11.0003 0Z" fill="currentColor"/>
</svg>
