<svg width="0" height="0" class="hidden">
  <symbol fill="none" xmlns="http://www.w3.org/2000/svg" viewBox="0 0 32 33" id="ic_all_for_business1">
    <path fill-rule="evenodd" clip-rule="evenodd" d="M11.7583 7.84839L11.761 7.84839L19.4437 7.84839C20.1454 7.84997 20.8435 7.94933 21.5177 8.1436C24.7503 8.98104 27.081 11.7982 27.2983 15.1304L27.9959 22.6138C27.9986 22.6436 28.0003 22.6735 28.0008 22.7035C28.0735 26.7143 24.8824 30.0255 20.8716 30.101L20.849 30.1014L10.3304 30.1012C6.31961 30.0257 3.12858 26.7143 3.20123 22.7035C3.20177 22.6735 3.20344 22.6435 3.20623 22.6136L3.90543 15.1268C4.12392 11.7965 6.45351 8.98136 9.68412 8.14366C10.3584 7.94935 11.0565 7.84997 11.7583 7.84839ZM11.7624 10.2484C11.2798 10.2496 10.7997 10.3186 10.3362 10.4534C10.324 10.457 10.3117 10.4603 10.2994 10.4635C8.05999 11.0383 6.44526 12.9895 6.29944 15.2969C6.29869 15.3089 6.29775 15.3208 6.29663 15.3328L5.60025 22.7895C5.57484 25.4531 7.69792 27.6453 10.365 27.7012H20.8371C23.5042 27.6453 25.6273 25.453 25.6018 22.7894L24.907 15.3358C24.9059 15.3237 24.9049 15.3116 24.9042 15.2996C24.7593 12.9908 23.1437 11.0382 20.9029 10.4636C20.8905 10.4604 20.8782 10.457 20.8659 10.4534C20.4024 10.3186 19.9223 10.2496 19.4396 10.2484H11.7624Z" fill="currentColor"></path>
    <path fill-rule="evenodd" clip-rule="evenodd" d="M15.6012 2.1008C19.2865 2.04359 22.3275 4.9764 22.4009 8.66429L22.4012 8.68817V11.9218C22.4012 12.5845 21.8639 13.1218 21.2012 13.1218C20.5384 13.1218 20.0012 12.5845 20.0012 11.9218V8.70083C19.948 6.33489 17.9913 4.45619 15.6238 4.50076C15.6087 4.50104 15.5936 4.50104 15.5786 4.50076C13.2111 4.45619 11.2543 6.3349 11.2012 8.70084V11.9202C11.2012 12.5829 10.6639 13.1202 10.0012 13.1202C9.33844 13.1202 8.80118 12.5829 8.80118 11.9202V8.68817L8.80142 8.66429C8.87484 4.9764 11.9158 2.04359 15.6012 2.1008Z" fill="currentColor"></path>
  </symbol>
  <symbol fill="none" xmlns="http://www.w3.org/2000/svg" viewBox="0 0 32 33" id="ic_all_for_business2">
    <path fill-rule="evenodd" clip-rule="evenodd" d="M25.3848 4.50027H6.61517C5.67181 4.48862 4.76199 4.85075 4.0846 5.50782C3.40465 6.16737 3.01446 7.07005 3.00014 8.01722L3 21.6936L3.00029 21.7127C3.0146 22.6598 3.40465 23.5625 4.0846 24.2221C4.76198 24.8791 5.67178 25.2412 6.61511 25.2296H13.0981L13.1045 25.2296C13.2725 25.2287 13.4385 25.2646 13.591 25.3347L23.044 30.3531C23.4361 30.5613 23.909 30.5474 24.2882 30.3164C24.6675 30.0854 24.8969 29.6717 24.8918 29.2277L24.8207 22.9517H25.9386C27.6006 22.9713 28.9683 21.6461 28.9996 19.9829L28.9999 19.9592L29 8.03624L28.9997 8.01723C28.9854 7.07005 28.5954 6.16737 27.9154 5.50782C27.238 4.85075 26.3282 4.48862 25.3848 4.50027ZM5.83645 7.31386C5.6374 7.50694 5.52244 7.77054 5.51624 8.04758V21.6823C5.52244 21.9593 5.6374 22.2229 5.83645 22.416C6.03734 22.6109 6.30742 22.7179 6.58725 22.7136L6.60656 22.7134L13.0951 22.7135L22.1536 22.7136V20.8547C22.1536 19.7504 24.3965 19.9781 24.8207 19.9592L26.4838 19.9829V8.04757C26.4776 7.77053 26.3626 7.50694 26.1635 7.31386C25.9627 7.119 25.6926 7.01193 25.4127 7.01623L25.3934 7.01652L5.83645 7.31386Z" fill="currentColor"></path>
    <path fill-rule="evenodd" clip-rule="evenodd" d="M8.03235 12.468C8.03235 11.7732 8.5956 11.21 9.2904 11.21H22.7096C23.4044 11.21 23.9677 11.7732 23.9677 12.468C23.9677 13.1628 23.4044 13.7261 22.7096 13.7261H9.2904C8.5956 13.7261 8.03235 13.1628 8.03235 12.468ZM8.03235 17.5002C8.03235 16.8054 8.5956 16.2422 9.2904 16.2422H19.3548C20.0496 16.2422 20.6129 16.8054 20.6129 17.5002C20.6129 18.195 20.0496 18.7583 19.3548 18.7583H9.2904C8.5956 18.7583 8.03235 18.195 8.03235 17.5002Z" fill="currentColor"></path>
  </symbol>
  <symbol fill="none" xmlns="http://www.w3.org/2000/svg" viewBox="0 0 32 33" id="ic_all_for_business3">
    <path fill-rule="evenodd" clip-rule="evenodd" d="M5.42338 5.23349C5.54735 4.69945 6.02319 4.32141 6.57143 4.32141H25.4286C25.9768 4.32141 26.4527 4.69945 26.5766 5.23349L28.1422 11.9781C28.1553 12.0293 28.1649 12.0819 28.171 12.1356C28.1772 12.1893 28.1797 12.2427 28.1786 12.2955V27.5C28.1786 28.1509 27.6509 28.6786 27 28.6786H5C4.34909 28.6786 3.82143 28.1509 3.82143 27.5V12.2955C3.82031 12.2427 3.82276 12.1892 3.82898 12.1356C3.83506 12.0819 3.84475 12.0293 3.85779 11.978L5.42338 5.23349ZM6.17857 13.4483V26.3214H25.8214V13.4483H17.1786V16.5C17.1786 17.1509 16.6509 17.6786 16 17.6786C15.3491 17.6786 14.8214 17.1509 14.8214 16.5V13.4483H6.17857ZM17.1786 11.0911H25.5165L24.4922 6.67855H17.1786V11.0911ZM14.8214 11.0911V6.67855H7.50776L6.48349 11.0911H14.8214Z" fill="currentColor"></path>
  </symbol>
  <symbol fill="none" xmlns="http://www.w3.org/2000/svg" viewBox="0 0 32 33" id="ic_all_for_business4">
    <path fill-rule="evenodd" clip-rule="evenodd" d="M15.7424 8.50035C14.6167 8.50058 13.7041 9.41303 13.7038 10.5388C13.7034 11.6647 14.6157 12.5777 15.7416 12.5784C16.8673 12.579 17.7806 11.6673 17.7818 10.5416M15.7428 8.50035C16.2838 8.5007 16.8025 8.71588 17.1848 9.09858C17.5672 9.48129 17.7819 10.0002 17.7818 10.5412M11.7034 10.5382C11.7041 8.30777 13.5124 6.5 15.7428 6.5H15.7432C16.8149 6.50047 17.8425 6.92664 18.5999 7.68475C19.3574 8.44286 19.7826 9.47081 19.7822 10.5425L19.7822 10.5429C19.7802 12.7733 17.9709 14.58 15.7404 14.5787C13.51 14.5774 11.7028 12.7686 11.7034 10.5382Z" fill="currentColor"></path>
    <path fill-rule="evenodd" clip-rule="evenodd" d="M18.8781 17.0607C18.8889 17.0607 18.8998 17.0608 18.9106 17.0612C21.6403 17.1469 23.8087 19.3845 23.8087 22.1155C23.8087 24.8466 21.6403 27.0842 18.9106 27.1699C18.9002 27.1703 18.8897 27.1704 18.8792 27.1704H12.6115C12.601 27.1704 12.5905 27.1703 12.5801 27.1699C9.8504 27.0842 7.68198 24.8466 7.68198 22.1155C7.68198 19.3845 9.8504 17.1469 12.5801 17.0612C12.5905 17.0608 12.601 17.0607 12.6115 17.0607H18.8781ZM12.6283 19.061C10.9853 19.1203 9.68232 20.4697 9.68232 22.1155C9.68232 23.7614 10.9852 25.1107 12.6283 25.1701H18.8624C20.5054 25.1107 21.8084 23.7614 21.8084 22.1155C21.8084 20.4697 20.5054 19.1203 18.8624 19.061H12.6283Z" fill="currentColor"></path>
    <path fill-rule="evenodd" clip-rule="evenodd" d="M24.1441 11.541C23.4128 11.541 22.82 12.1337 22.8198 12.865C22.8197 13.5962 23.4123 14.1892 24.1436 14.1895C24.8748 14.1897 25.4679 13.5972 25.4683 12.866C25.4685 12.5146 25.3291 12.1776 25.0807 11.9291L25.7881 11.2221L25.0807 11.9291C24.8323 11.6806 24.4954 11.541 24.1441 11.541ZM20.8195 12.8646C20.8198 11.0287 22.3082 9.54065 24.1441 9.54065C25.0261 9.54065 25.872 9.89118 26.4956 10.5151C27.1191 11.139 27.4691 11.9851 27.4686 12.8671C27.4676 14.703 25.9787 16.1905 24.1428 16.1898C22.3069 16.1891 20.8191 14.7005 20.8195 12.8646Z" fill="currentColor"></path>
    <path fill-rule="evenodd" clip-rule="evenodd" d="M3.65924 12.8668C3.65924 11.0307 5.1477 9.54224 6.98382 9.54224C8.81993 9.54224 10.3084 11.0307 10.3084 12.8668C10.3084 14.7029 8.81993 16.1914 6.98382 16.1914C5.1477 16.1914 3.65924 14.7029 3.65924 12.8668ZM6.98382 11.5426C6.25246 11.5426 5.65959 12.1355 5.65959 12.8668C5.65959 13.5982 6.25246 14.191 6.98382 14.191C7.71517 14.191 8.30804 13.5982 8.30804 12.8668C8.30804 12.1355 7.71517 11.5426 6.98382 11.5426Z" fill="currentColor"></path>
    <path fill-rule="evenodd" clip-rule="evenodd" d="M23.8001 18.9537C23.8001 18.4013 24.2479 17.9535 24.8003 17.9535H26.5536L26.564 17.9537C28.7959 18 30.581 19.8225 30.581 22.0549C30.581 24.2872 28.7959 26.1097 26.564 26.156L26.5536 26.1562H24.8003C24.2479 26.1562 23.8001 25.7085 23.8001 25.1561C23.8001 24.6037 24.2479 24.1559 24.8003 24.1559H26.5319C27.671 24.1273 28.5806 23.1955 28.5806 22.0549C28.5806 20.9142 27.671 19.9824 26.5319 19.9538H24.8003C24.2479 19.9538 23.8001 19.506 23.8001 18.9537Z" fill="currentColor"></path>
    <path fill-rule="evenodd" clip-rule="evenodd" d="M4.57436 17.9535H6.3277C6.88008 17.9535 7.32787 18.4013 7.32787 18.9537C7.32787 19.506 6.88008 19.9538 6.3277 19.9538H4.59609C3.45696 19.9824 2.54734 20.9142 2.54734 22.0549C2.54734 23.1955 3.45696 24.1273 4.59609 24.1559H6.3277C6.88008 24.1559 7.32787 24.6037 7.32787 25.1561C7.32787 25.7085 6.88008 26.1562 6.3277 26.1562H4.57436L4.56399 26.156C2.33212 26.1097 0.546997 24.2872 0.546997 22.0549C0.546997 19.8225 2.33212 18 4.56399 17.9537L4.57436 17.9535Z" fill="currentColor"></path>
  </symbol>
  <symbol fill="none" xmlns="http://www.w3.org/2000/svg" viewBox="0 0 32 32" id="ic_all_for_business5">
    <path fill-rule="evenodd" clip-rule="evenodd" d="M2 15.5C2 7.76801 8.26801 1.5 16 1.5C16.7483 1.5 17.3548 2.10658 17.3548 2.85484V14.1452H28.6452C29.3934 14.1452 30 14.7517 30 15.5C30 23.232 23.732 29.5 16 29.5C8.26801 29.5 2 23.232 2 15.5ZM14.6452 4.29013C9.04847 4.95945 4.70968 9.72304 4.70968 15.5C4.70968 21.7355 9.76453 26.7903 16 26.7903C21.777 26.7903 26.5405 22.4515 27.2099 16.8548H16C15.2517 16.8548 14.6452 16.2483 14.6452 15.5V4.29013Z" fill="currentColor"></path>
    <path fill-rule="evenodd" clip-rule="evenodd" d="M19.433 2.47078C19.7925 2.2169 20.2529 2.15349 20.6677 2.30073C24.6512 3.71486 27.7852 6.84891 29.1994 10.8324C29.3466 11.2472 29.2832 11.7076 29.0293 12.0671C28.7754 12.4267 28.3627 12.6405 27.9226 12.6405H20.2145C19.4662 12.6405 18.8596 12.0339 18.8596 11.2856V3.5775C18.8596 3.13737 19.0734 2.72466 19.433 2.47078ZM21.5693 5.68122V9.93079H25.8189C24.8112 8.15795 23.3421 6.68894 21.5693 5.68122Z" fill="currentColor"></path>
  </symbol>
  <symbol fill="none" xmlns="http://www.w3.org/2000/svg" viewBox="0 0 17 17" id="ic_email">
    <path d="M15.2505 5.52661C15.2652 5.94056 15.6127 6.26418 16.0267 6.24944C16.4406 6.2347 16.7643 5.88718 16.7495 5.47323L15.2505 5.52661ZM11.714 1.49992V2.24992C11.7224 2.24992 11.7307 2.24978 11.7391 2.2495L11.714 1.49992ZM5.286 1.49992L5.26095 2.2495C5.2693 2.24978 5.27765 2.24992 5.286 2.24992V1.49992ZM0.250475 5.47323C0.235735 5.88718 0.559359 6.2347 0.97331 6.24944C1.38726 6.26418 1.73478 5.94056 1.74952 5.52661L0.250475 5.47323ZM16.75 5.5C16.75 5.08579 16.4142 4.75 16 4.75C15.5858 4.75 15.25 5.08579 15.25 5.5H16.75ZM16 11.5L16.7495 11.5267C16.7498 11.5178 16.75 11.5089 16.75 11.5H16ZM11.714 15.5L11.7391 14.7504C11.7307 14.7501 11.7224 14.75 11.714 14.75V15.5ZM5.286 15.5V14.75C5.27765 14.75 5.2693 14.7501 5.26095 14.7504L5.286 15.5ZM1 11.5H0.25C0.25 11.5089 0.250158 11.5178 0.250475 11.5267L1 11.5ZM1.75 5.5C1.75 5.08579 1.41421 4.75 1 4.75C0.585786 4.75 0.25 5.08579 0.25 5.5H1.75ZM16.3783 6.1476C16.736 5.93867 16.8565 5.47936 16.6476 5.1217C16.4387 4.76404 15.9794 4.64347 15.6217 4.8524L16.3783 6.1476ZM10.736 8.575L10.3577 7.92737L10.3515 7.93109L10.736 8.575ZM6.264 8.575L6.64856 7.93106L6.6423 7.9274L6.264 8.575ZM1.3783 4.8524C1.02064 4.64347 0.561328 4.76404 0.352398 5.1217C0.143468 5.47936 0.264038 5.93867 0.621699 6.1476L1.3783 4.8524ZM16.7495 5.47323C16.6534 2.77292 14.3895 0.660078 11.6889 0.750338L11.7391 2.2495C13.6129 2.18687 15.1838 3.65293 15.2505 5.52661L16.7495 5.47323ZM11.714 0.749919H5.286V2.24992H11.714V0.749919ZM5.31105 0.750338C2.61054 0.660078 0.34663 2.77292 0.250475 5.47323L1.74952 5.52661C1.81625 3.65293 3.38712 2.18687 5.26095 2.2495L5.31105 0.750338ZM15.25 5.5V11.5H16.75V5.5H15.25ZM15.2505 11.4733C15.1838 13.347 13.6129 14.813 11.7391 14.7504L11.6889 16.2496C14.3895 16.3398 16.6534 14.227 16.7495 11.5267L15.2505 11.4733ZM11.714 14.75H5.286V16.25H11.714V14.75ZM5.26095 14.7504C3.38712 14.813 1.81624 13.347 1.74952 11.4733L0.250475 11.5267C0.34663 14.227 2.61054 16.3398 5.31105 16.2496L5.26095 14.7504ZM1.75 11.5V5.5H0.25V11.5H1.75ZM15.6217 4.8524L10.3577 7.9274L11.1143 9.2226L16.3783 6.1476L15.6217 4.8524ZM10.3515 7.93109C9.21109 8.61211 7.78891 8.61211 6.64854 7.93109L5.87946 9.21891C7.49352 10.1828 9.50647 10.1828 11.1205 9.21891L10.3515 7.93109ZM6.6423 7.9274L1.3783 4.8524L0.621699 6.1476L5.8857 9.2226L6.6423 7.9274Z" fill="currentColor"></path>
  </symbol>
  <symbol fill="none" xmlns="http://www.w3.org/2000/svg" viewBox="0 0 15 16" id="ic_list">
    <path d="M7.5 0.346436C3.36 0.346436 0 3.70644 0 7.84644C0 11.9864 3.36 15.3464 7.5 15.3464C11.64 15.3464 15 11.9864 15 7.84644C15 3.70644 11.64 0.346436 7.5 0.346436ZM6 11.5964L2.25 7.84644L3.3075 6.78894L6 9.47394L11.6925 3.78144L12.75 4.84644L6 11.5964Z" fill="currentColor"></path>
  </symbol>
  <symbol fill="none" xmlns="http://www.w3.org/2000/svg" viewBox="0 0 30 25" id="ic_logout">
    <path fill-rule="evenodd" clip-rule="evenodd" d="M17.5139 6.61832C17.9706 6.12895 18.713 6.12698 19.172 6.61392L23.8853 11.6139C23.8889 11.6177 23.8925 11.6216 23.896 11.6254C24.003 11.7419 24.0842 11.8747 24.1399 12.0166C24.1984 12.1653 24.2308 12.3286 24.2308 12.5C24.2308 12.6714 24.1984 12.8347 24.1399 12.9834C24.0842 13.1252 24.0029 13.2583 23.896 13.3746C23.8925 13.3784 23.8889 13.3823 23.8853 13.3861L19.172 18.3861C18.713 18.873 17.9706 18.871 17.5139 18.3817C17.0572 17.8923 17.059 17.1009 17.5181 16.6139L20.2177 13.75H1.17246C0.524927 13.75 0 13.1904 0 12.5C0 11.8096 0.524927 11.25 1.17246 11.25H20.2177L17.5181 8.38608C17.059 7.89915 17.0572 7.10769 17.5139 6.61832Z" fill="currentColor"></path>
    <path fill-rule="evenodd" clip-rule="evenodd" d="M9.23077 7.66129C9.23077 3.43008 12.5025 0 16.5385 0H22.6923C26.7282 0 30 3.43008 30 7.66129V17.3387C30 21.5699 26.7282 25 22.6923 25H16.5385C12.5025 25 9.23077 21.5699 9.23077 17.3387C9.23077 16.6706 9.74737 16.129 10.3846 16.129C11.0219 16.129 11.5385 16.6706 11.5385 17.3387C11.5385 20.2337 13.777 22.5806 16.5385 22.5806H22.6923C25.4537 22.5806 27.6923 20.2337 27.6923 17.3387V7.66129C27.6923 4.76625 25.4537 2.41935 22.6923 2.41935H16.5385C13.777 2.41935 11.5385 4.76625 11.5385 7.66129C11.5385 8.32938 11.0219 8.87097 10.3846 8.87097C9.74737 8.87097 9.23077 8.32938 9.23077 7.66129Z" fill="currentColor"></path>
  </symbol>
  <symbol fill="none" xmlns="http://www.w3.org/2000/svg" viewBox="0 0 16 17" id="ic_phone">
    <path fill-rule="evenodd" clip-rule="evenodd" d="M1.86343 2.85805C2.74343 1.93105 3.05443 1.67105 3.42943 1.55005C3.68895 1.48204 3.96112 1.47827 4.22243 1.53905C4.56643 1.63905 4.65743 1.71505 5.78543 2.83905C6.77643 3.82605 6.87543 3.93305 6.97043 4.12605C7.15208 4.46482 7.18046 4.86503 7.04843 5.22605C6.94843 5.50105 6.80643 5.68305 6.20543 6.28605L5.81343 6.67905C5.71048 6.78366 5.68629 6.94253 5.75343 7.07305C6.62437 8.5589 7.86 9.79798 9.34343 10.673C9.51418 10.7645 9.72445 10.7349 9.86343 10.6L10.2404 10.229C10.4734 9.9902 10.7202 9.76515 10.9794 9.55505C11.3866 9.30506 11.8939 9.28275 12.3214 9.49605C12.5304 9.59605 12.5994 9.65805 13.6214 10.678C14.6754 11.729 14.7054 11.762 14.8214 12.003C15.0397 12.402 15.0374 12.8852 14.8154 13.282C14.7024 13.506 14.6334 13.587 14.0404 14.193C13.6824 14.559 13.3454 14.893 13.2914 14.942C12.8022 15.3471 12.1746 15.5458 11.5414 15.496C10.383 15.3905 9.26169 15.0324 8.25643 14.447C6.02956 13.2672 4.13383 11.5482 2.74243 9.44705C2.43937 9.00731 2.16994 8.54534 1.93643 8.06505C1.31001 6.99141 0.986529 5.76798 1.00043 4.52505C1.04825 3.87481 1.36008 3.27246 1.86343 2.85805Z" stroke="currentColor" stroke-width="1.5" stroke-linecap="round" stroke-linejoin="round"></path>
  </symbol>
  <symbol fill="none" xmlns="http://www.w3.org/2000/svg" viewBox="0 0 22 22" id="ic_plus">
    <path fill-rule="evenodd" clip-rule="evenodd" d="M11.0003 0C10.3494 0 9.82176 0.527664 9.82176 1.17857V9.82151H1.17857C0.527664 9.82151 0 10.3492 0 11.0001C0 11.651 0.527664 12.1787 1.17857 12.1787H9.82176V20.8214C9.82176 21.4723 10.3494 22 11.0003 22C11.6512 22 12.1789 21.4723 12.1789 20.8214V12.1787H20.8214C21.4723 12.1787 22 11.651 22 11.0001C22 10.3492 21.4723 9.82151 20.8214 9.82151H12.1789V1.17857C12.1789 0.527664 11.6512 0 11.0003 0Z" fill="currentColor"></path>
  </symbol>
</svg>